<svg xmlns="http://www.w3.org/2000/svg" width="702" height="363" viewBox="0 0 702 363" version="1.1"><path d="M 109.096 293.260 C 102 295.844, 102.205 301, 109.404 301 C 116.875 301, 122.216 297.585, 120.099 294.161 C 118.971 292.335, 112.982 291.845, 109.096 293.260 M 393.141 292.891 C 392.394 293.365, 388.890 293.520, 385.354 293.236 L 378.925 292.720 374.511 297.327 C 367.211 304.946, 364.345 319.620, 367.374 333.866 C 370.371 347.956, 377.161 354.719, 387.329 353.742 C 391.557 353.336, 392.922 352.661, 395.745 349.581 C 398.514 346.559, 399.060 345.244, 398.808 342.202 C 398.556 339.180, 398.066 338.439, 396.135 338.165 C 393.157 337.744, 391.792 339.101, 390.476 343.792 C 389.728 346.461, 388.884 347.500, 387.468 347.500 C 385.579 347.500, 385.489 346.618, 385.217 325.500 C 385.062 313.400, 385.183 302.488, 385.487 301.250 C 386.475 297.218, 388.810 298.775, 391.070 304.972 C 393.201 310.816, 395.582 312.994, 398.123 311.424 C 399.771 310.405, 398.649 294.026, 396.853 292.888 C 395.169 291.821, 394.830 291.822, 393.141 292.891 M 632.071 293.752 C 621.410 299.188, 621.551 312.266, 632.440 328.066 C 642.848 343.169, 644.541 347.500, 640.036 347.500 C 638.088 347.500, 636.931 346.349, 634.507 342 C 631.856 337.243, 630.990 336.456, 628.097 336.177 L 624.751 335.855 625.450 340.677 C 625.834 343.330, 626.596 347.325, 627.144 349.555 L 628.139 353.610 636.820 353.716 C 647.265 353.844, 650.931 352.129, 653.399 345.961 C 656.775 337.523, 655.225 331.971, 644.995 315.853 C 637.459 303.980, 635.507 299, 638.387 299 C 639.288 299, 641.608 301.475, 643.543 304.500 C 646.513 309.142, 647.525 310, 650.031 310 C 653.483 310, 653.696 308.800, 651.864 299.676 C 650.482 292.794, 648.935 291.162, 645.755 293.230 C 643.866 294.458, 642.931 294.489, 640 293.424 C 635.447 291.769, 636.004 291.746, 632.071 293.752 M 58.559 296.907 C 56.945 299.463, 54.882 301.214, 52.594 301.969 C 48.573 303.296, 46.864 306.697, 49.317 308.490 C 50.626 309.447, 50.930 312.912, 51.190 329.783 C 51.539 352.447, 51.631 352.738, 58.799 353.700 C 68.063 354.942, 72.819 351.858, 68 347.732 C 66.142 346.141, 66 344.782, 66 328.581 C 66 314.061, 66.263 310.880, 67.571 309.571 C 68.436 308.707, 69.561 308, 70.071 308 C 72.123 308, 70.881 303.903, 68.500 302.818 C 66.392 301.858, 66 300.998, 66 297.339 C 66 293.383, 65.780 293, 63.513 293 C 61.708 293, 60.348 294.073, 58.559 296.907 M 210.441 294.439 C 208.799 295.657, 208.690 296.190, 209.735 297.901 C 210.540 299.220, 211.142 306.284, 211.466 318.212 C 211.915 334.729, 211.454 342.022, 209.440 350.250 L 208.767 353 218.415 353 C 226.252 353, 228.176 352.706, 228.664 351.433 C 228.995 350.571, 228.756 349.356, 228.133 348.733 C 227.347 347.947, 227 339.606, 227 321.500 C 227 302.533, 226.672 295.072, 225.800 294.200 C 224.089 292.489, 212.836 292.664, 210.441 294.439 M 292.250 293.662 C 290.717 294.281, 290.581 299.694, 292.085 300.195 C 293.563 300.688, 293.531 346.869, 292.052 348.348 C 291.473 348.927, 291 350.231, 291 351.246 C 291 352.885, 291.746 353.058, 297.670 352.796 C 305.008 352.470, 306.319 351.319, 303.063 348.063 C 301.186 346.186, 301.006 344.847, 301.069 333.250 L 301.139 320.500 304.351 330.500 C 307.267 339.579, 307.789 340.500, 310.018 340.500 C 312.954 340.500, 313.911 338.745, 317.383 326.998 L 319.894 318.500 319.947 331.936 C 319.996 344.301, 319.831 345.551, 317.873 347.635 C 314.508 351.217, 315.968 352.649, 323.666 353.323 C 333.222 354.158, 338.410 353.100, 338.820 350.232 C 339.012 348.892, 338.509 347.749, 337.570 347.389 C 335.258 346.501, 335.190 300.525, 337.500 299.638 C 338.325 299.322, 339 297.932, 339 296.550 C 339 293.448, 336.822 292.780, 328.073 293.197 C 320.779 293.544, 321.362 292.868, 317.474 305.500 L 314.705 314.500 311.873 305.500 C 310.315 300.550, 309.031 295.986, 309.020 295.357 C 309.009 294.728, 308.288 293.941, 307.418 293.607 C 305.553 292.891, 294.057 292.933, 292.250 293.662 M 341.750 293.689 C 339.364 294.313, 339.524 298.222, 342 299.768 C 343.906 300.958, 344 302.100, 344 323.941 C 344 345.987, 343.923 346.890, 342 347.500 C 339.460 348.306, 339.274 352.665, 341.750 353.347 C 343.176 353.740, 353.717 353.615, 362.250 353.105 C 364.456 352.973, 364.664 348.192, 362.500 347.362 C 361.226 346.873, 361 343.276, 361 323.500 C 361 303.724, 361.226 300.127, 362.500 299.638 C 364.488 298.875, 364.427 294.378, 362.418 293.607 C 360.634 292.922, 344.439 292.987, 341.750 293.689 M 402.250 293.706 C 399.558 294.224, 399.343 296.614, 401.750 299.285 C 403.324 301.033, 403.475 303.491, 403.248 323.788 C 403.042 342.165, 402.718 346.655, 401.498 348.003 C 398.103 351.753, 399.485 352.732, 408.750 353.145 C 413.563 353.359, 420.867 353.302, 424.981 353.017 L 432.463 352.500 433.759 346.636 C 434.764 342.092, 434.788 340.449, 433.865 339.338 C 431.662 336.682, 428.647 338.235, 426.270 343.250 C 424.686 346.594, 423.425 348, 422.010 348 C 420.113 348, 420 347.352, 420 336.500 C 420 325.620, 420.109 325, 422.025 325 C 423.278 325, 424.421 325.977, 425.025 327.566 C 425.798 329.600, 426.572 330.067, 428.750 329.816 C 431.494 329.501, 431.500 329.484, 431.500 321.500 L 431.500 313.500 428.722 313.181 C 426.396 312.914, 425.770 313.361, 424.874 315.931 C 424.186 317.906, 423.126 319, 421.902 319 C 420.159 319, 420 318.162, 420 309 C 420 301.290, 420.308 299, 421.345 299 C 423.048 299, 425.558 301.827, 426.448 304.748 C 427.230 307.314, 431.575 308.825, 433.278 307.122 C 434.119 306.281, 434.036 304.521, 432.954 300.250 C 431.659 295.137, 431.171 294.438, 428.500 293.872 C 425.135 293.159, 405.726 293.036, 402.250 293.706 M 459.751 293.689 C 457.559 294.262, 456.787 297.237, 457.188 303.566 C 457.488 308.312, 457.614 308.500, 460.500 308.500 C 463.222 308.500, 463.599 308.089, 464.570 304.060 C 465.159 301.618, 466.172 299.443, 466.820 299.227 C 467.704 298.932, 468 304.716, 468 322.294 C 468 341.928, 467.755 345.958, 466.500 347 C 465.675 347.685, 465 349.315, 465 350.622 C 465 352.988, 465.058 353, 476.500 353 L 488 353 488 350.469 C 488 349.076, 487.325 347.678, 486.500 347.362 C 485.224 346.872, 485 343.202, 485 322.834 C 485 307.764, 485.356 299.102, 485.961 299.476 C 486.490 299.803, 487.217 301.642, 487.578 303.562 C 488.274 307.273, 490.833 309.385, 493.428 308.389 C 494.608 307.936, 495 306.336, 495 301.964 C 495 293.114, 494.719 292.978, 476.679 293.116 C 468.330 293.180, 460.713 293.438, 459.751 293.689 M 498.750 294.080 C 496.397 295.451, 496.533 298.680, 499 300 C 500.908 301.021, 501 302.094, 501 323.313 C 501 344.318, 500.889 345.651, 499 347.268 C 493.899 351.635, 497.784 353.857, 509.847 353.472 C 519.389 353.167, 520.789 352.394, 519.195 348.306 C 518.040 345.339, 517.630 340.569, 517.860 332.750 C 517.976 328.805, 518.321 328, 519.893 328 C 522.539 328, 523 329.843, 523 340.427 C 523 353.257, 523.040 353.284, 542 353.221 C 557.297 353.170, 558.405 352.794, 555.649 348.587 C 554.742 347.203, 554 344.930, 554 343.535 C 554 341.160, 554.315 341, 559 341 C 563.685 341, 564 341.160, 564 343.535 C 564 344.930, 563.286 347.160, 562.414 348.491 C 561.541 349.823, 561.081 351.323, 561.391 351.824 C 562.268 353.242, 571.711 354.180, 577.646 353.439 C 582.280 352.859, 583 352.476, 583 350.585 C 583 349.383, 582.526 347.926, 581.948 347.348 C 580.790 346.190, 574.397 313.286, 573.350 303.096 C 572.437 294.211, 571.026 293, 561.582 293 C 557.502 293, 553.452 293.273, 552.582 293.607 C 550.704 294.327, 550.526 297.269, 552.198 299.946 C 553.160 301.486, 552.876 304.685, 550.755 316.182 C 549.303 324.057, 547.580 333.875, 546.928 338 C 546.275 342.125, 544.981 346.470, 544.052 347.655 C 542.414 349.743, 542.326 349.751, 541.181 347.918 C 540.531 346.878, 540 343.757, 540 340.981 C 540 334.558, 538.010 329.806, 534.112 326.925 L 531.040 324.654 534.029 322.836 C 546.569 315.210, 540.849 296.472, 525.194 293.893 C 518.361 292.767, 500.791 292.891, 498.750 294.080 M 586.250 293.640 C 584.519 294.369, 584.681 298.491, 586.500 300 C 587.753 301.040, 588 305.010, 588 324.154 C 588 343.595, 587.773 347.150, 586.500 347.638 C 585.675 347.955, 585 349.241, 585 350.496 C 585 352.299, 585.713 352.911, 588.404 353.416 C 590.276 353.767, 593.651 353.760, 595.904 353.399 C 600.564 352.654, 601.179 350.883, 597.965 347.462 C 596.133 345.512, 595.958 344.208, 596.215 334.398 L 596.500 323.500 603.685 338.250 L 610.869 353 614.935 353 L 619 353 619 327.155 C 619 302.580, 619.098 301.221, 621 299.500 C 625.314 295.596, 621.997 292.721, 613.729 293.199 C 607.675 293.549, 606.396 295.664, 609.950 299.447 C 611.851 301.470, 612.050 302.682, 611.791 310.608 L 611.500 319.500 605 306.500 L 598.500 293.500 593 293.307 C 589.975 293.200, 586.938 293.350, 586.250 293.640 M 518 310.500 C 518 319.933, 518.263 322, 519.465 322 C 521.923 322, 523 318.495, 523 310.500 C 523 302.505, 521.923 299, 519.465 299 C 518.263 299, 518 301.067, 518 310.500 M 74.250 302.662 C 72.761 303.263, 72.574 307.619, 74 308.500 C 74.610 308.877, 75 316.491, 75 328 C 75 339.509, 74.610 347.123, 74 347.500 C 72.305 348.548, 72.855 352.826, 74.750 353.335 C 76.233 353.734, 89.959 353.583, 92.250 353.144 C 93.569 352.891, 93.053 348.910, 91.500 347.357 C 90.297 346.154, 90 342.816, 90 330.488 C 90 322.034, 90.399 314.871, 90.887 314.570 C 91.374 314.269, 92.329 314.692, 93.009 315.511 C 94.756 317.616, 98.737 317.361, 99.965 315.066 C 101.487 312.221, 101.225 306.766, 99.443 304.223 C 96.785 300.428, 91.580 301.913, 89.709 307 C 89.343 307.996, 89.131 307.756, 89.079 306.285 C 89.036 305.067, 88.130 303.605, 87.066 303.035 C 85.106 301.986, 76.543 301.737, 74.250 302.662 M 104.250 302.662 C 102.761 303.263, 102.574 307.619, 104 308.500 C 104.610 308.877, 105 316.491, 105 328 C 105 339.509, 104.610 347.123, 104 347.500 C 103.450 347.840, 103 349.216, 103 350.559 C 103 352.984, 103.064 353, 113 353 C 122.116 353, 123 352.834, 123 351.122 C 123 350.090, 122.286 348.653, 121.414 347.929 C 120.037 346.786, 119.873 343.806, 120.164 325.277 C 120.450 307.150, 120.274 303.797, 119 302.986 C 117.457 302.003, 106.480 301.763, 104.250 302.662 M 126.750 303.014 C 124.604 304.345, 124.503 306.343, 126.500 308 C 127.756 309.042, 128 313.081, 128 332.794 C 128 353.424, 127.792 356.572, 126.324 358.195 C 124.002 360.760, 125.474 361.763, 132 362.064 C 142.612 362.553, 145 362.185, 145 360.059 C 145 358.991, 144.550 357.840, 144 357.500 C 143.450 357.160, 143 355.543, 143 353.906 C 143 351.273, 143.223 351.049, 144.934 351.965 C 147.426 353.298, 154.572 353.299, 157.062 351.967 C 158.125 351.398, 160.002 349.036, 161.235 346.717 C 163.269 342.892, 163.478 341.107, 163.489 327.500 C 163.498 315.150, 163.194 311.941, 161.770 309.338 C 158.117 302.663, 151.735 300.281, 146.003 303.453 C 144.259 304.418, 143.131 304.524, 142.263 303.803 C 140.469 302.314, 128.832 301.723, 126.750 303.014 M 167.933 303.581 C 166.903 304.821, 166.877 305.573, 167.810 307.068 C 169.332 309.504, 169.509 357.567, 168 358.500 C 167.450 358.840, 167 359.766, 167 360.559 C 167 361.722, 169.024 362, 177.500 362 C 188.706 362, 190.136 361.243, 186 357.500 C 183.401 355.148, 183.203 350.436, 185.750 351.555 C 188.415 352.726, 194.724 353.286, 197.473 352.596 C 198.997 352.214, 200.984 350.183, 202.714 347.240 C 205.290 342.857, 205.526 341.557, 205.845 329.960 C 206.254 315.095, 205.138 309.938, 200.510 305.310 C 196.780 301.580, 192.493 300.973, 187.664 303.492 C 185.159 304.798, 184.654 304.797, 183.342 303.485 C 181.221 301.364, 169.714 301.435, 167.933 303.581 M 243.287 303.630 C 236.455 306.998, 231.943 316.231, 231.830 327.070 C 231.743 335.450, 232.604 339.471, 235.602 344.685 C 238.663 350.010, 242.673 352.856, 248.175 353.611 C 257.925 354.947, 265.547 349.799, 266.715 341.088 C 267.206 337.428, 267.035 337.047, 264.627 336.443 C 260.718 335.461, 259.329 336.426, 258.542 340.670 C 257.258 347.586, 252.656 350.202, 249.557 345.777 C 248.472 344.228, 248 341.198, 248 335.777 L 248 328 257.500 328 L 267 328 267 323.682 C 267 314.322, 262.951 306.531, 256.316 303.122 C 253.219 301.531, 247.056 301.771, 243.287 303.630 M 248.607 309.582 C 248.273 310.452, 248 313.602, 248 316.582 C 248 321.695, 248.141 322, 250.500 322 C 252.859 322, 253 321.695, 253 316.582 C 253 310.340, 252.318 308, 250.500 308 C 249.793 308, 248.941 308.712, 248.607 309.582 M 143.667 310.667 C 143.300 311.033, 143 318.908, 143 328.167 C 143 344.016, 143.111 345, 144.893 345 C 145.934 345, 147.059 344.288, 147.393 343.418 C 148.179 341.371, 148.159 315.195, 147.370 312.250 C 146.784 310.065, 145.022 309.311, 143.667 310.667 M 184.630 312.250 C 183.835 315.218, 183.849 336.456, 184.650 341.301 C 185.170 344.445, 185.644 345.050, 187.389 344.801 C 189.415 344.512, 189.512 343.895, 189.787 329.500 C 190.111 312.528, 189.762 310, 187.098 310 C 186.010 310, 184.982 310.937, 184.630 312.250 M 557.084 321.725 C 556.424 326.001, 555.636 330.962, 555.331 332.750 C 554.784 335.963, 554.823 336, 558.738 336 L 562.699 336 560.888 325.372 C 559.892 319.527, 558.899 314.565, 558.680 314.347 C 558.461 314.128, 557.743 317.448, 557.084 321.725" stroke="none" fill="#342c2c" fill-rule="evenodd"/><path d="M 348 0.738 C 345.406 1.139, 314.764 8.101, 256.207 21.593 L 244.914 24.195 245.280 106.848 C 245.556 168.889, 245.961 190.747, 246.905 194.500 C 249.260 203.859, 255.978 215.965, 262.454 222.516 C 269.825 229.972, 273.806 232.701, 290.500 241.737 C 297.650 245.607, 307.775 251.148, 313 254.050 C 338.560 268.247, 349.518 274, 351 274 C 352.509 274, 364.381 267.756, 390 253.489 C 395.775 250.273, 404.325 245.546, 409 242.986 C 432.887 229.902, 438.401 225.678, 445.457 215.065 C 457.080 197.581, 456.984 198.517, 456.993 102.785 C 457 29.782, 456.894 25.015, 455.250 24.156 C 454.288 23.653, 449 22.260, 443.500 21.060 C 434.192 19.029, 425.559 17.061, 375.500 5.557 C 354.135 0.647, 351.537 0.192, 348 0.738 M 344.500 16.622 C 342.440 17.145, 320.160 22.359, 286 30.311 C 275.275 32.808, 265.019 35.149, 263.209 35.514 L 259.918 36.177 260.218 112.338 C 260.510 186.561, 260.571 188.655, 262.607 194.599 C 266.960 207.306, 275.761 216.648, 291.500 225.265 C 293.150 226.169, 305.075 232.736, 318 239.860 C 330.925 246.983, 343.676 253.862, 346.335 255.146 L 351.170 257.481 359.780 252.991 C 364.515 250.521, 372.015 246.450, 376.445 243.945 C 380.875 241.440, 390.575 236.069, 398 232.009 C 421.997 218.888, 428.740 213.778, 434.961 204 C 441.637 193.506, 441.419 196.440, 441.767 112.342 L 442.082 36.183 436.791 35.060 C 430.409 33.704, 403.459 27.434, 377.500 21.266 C 359.447 16.975, 348.933 15.496, 344.500 16.622 M 0.334 57.428 C 1.408 70.134, 6.206 80.012, 16 89.683 C 22.332 95.936, 34.618 102.481, 42.886 104.006 C 46.212 104.620, 84.576 105, 143.153 105 L 238.032 105 237.766 77.750 L 237.500 50.500 118.603 50.246 L -0.294 49.992 0.334 57.428 M 464.667 50.667 C 464.300 51.033, 464 63.408, 464 78.167 L 464 105 558.864 105 C 617.429 105, 655.788 104.620, 659.114 104.006 C 662.076 103.460, 668.149 101.219, 672.608 99.028 C 689.885 90.538, 702 71.922, 702 53.864 L 702 50 583.667 50 C 518.583 50, 465.033 50.300, 464.667 50.667 M 269 61.949 C 267.827 62.713, 267.500 65.171, 267.500 73.213 L 267.500 83.500 271.463 83.500 C 275.775 83.500, 275.478 83.978, 277.666 73.511 C 278.205 70.932, 279.119 69.403, 280.250 69.187 C 281.891 68.874, 282 71.156, 282 105.886 L 282 142.919 279.419 145.312 C 277.547 147.048, 276.929 148.501, 277.169 150.602 L 277.500 153.500 292.500 153.500 L 307.500 153.500 307.807 150.342 C 308.027 148.067, 307.468 146.582, 305.807 145.035 L 303.500 142.887 303.215 105.944 C 303.033 82.388, 303.283 69, 303.906 69 C 305.415 69, 306.371 70.984, 308 77.500 C 309.397 83.089, 309.711 83.521, 312.585 83.801 C 317.292 84.260, 318.014 82.578, 317.322 72.768 C 316.987 68.031, 316.345 63.558, 315.895 62.828 C 314.879 61.182, 271.426 60.368, 269 61.949 M 388.249 62.250 C 387.007 63.808, 385.636 79.279, 386.499 81.997 C 386.971 83.483, 388.011 84, 390.532 84 C 394.349 84, 395.357 82.716, 396.422 76.500 C 397.486 70.282, 398.024 69, 399.567 69 C 400.785 69, 401 74.621, 401 106.531 C 401 139.781, 400.820 144.132, 399.423 144.668 C 397.388 145.449, 395.976 149.193, 396.689 151.919 C 397.231 153.990, 397.671 154.044, 411.873 153.776 L 426.500 153.500 426.808 149.795 C 427.046 146.930, 426.648 145.797, 425.058 144.804 C 423.040 143.544, 423 142.785, 423 106.176 C 423 76.752, 423.265 68.920, 424.250 69.240 C 424.938 69.463, 426.175 72.407, 427 75.782 C 428.772 83.031, 429.790 84.267, 433.628 83.828 L 436.500 83.500 436.222 73.500 C 436.069 68, 435.745 62.938, 435.503 62.250 C 435.168 61.299, 429.579 61, 412.154 61 C 395.025 61, 388.994 61.315, 388.249 62.250 M 320.607 93.582 C 319.544 96.352, 319.945 98.312, 322.027 100.529 C 323.983 102.610, 324.057 103.965, 324.143 138.887 C 324.221 170.892, 324.044 175.294, 322.616 176.872 C 320.707 178.982, 320.518 182.118, 322.200 183.800 C 323.440 185.040, 333.624 185.465, 336.418 184.393 C 338.654 183.535, 338.413 178.478, 335.979 175.185 C 334.082 172.619, 333.974 171.189, 334.229 151.975 L 334.500 131.500 338.500 147.500 L 342.500 163.500 346.154 163.805 C 350.420 164.160, 350.066 164.910, 355.034 145.007 C 356.749 138.136, 358.343 132.324, 358.576 132.091 C 358.809 131.857, 359 140.949, 359 152.294 C 359 171.858, 358.893 173.021, 356.933 174.848 C 355.385 176.290, 354.945 177.745, 355.183 180.637 L 355.500 184.500 367.500 184.790 C 382.942 185.162, 384 184.896, 384 180.636 C 384 178.580, 383.236 176.619, 382 175.500 C 380.072 173.755, 380 172.420, 380 138.384 C 380 105.417, 380.122 102.959, 381.840 101.289 C 384.217 98.977, 385.197 96.195, 384.455 93.859 C 383.924 92.186, 382.690 92, 372.112 92 L 360.359 92 356.532 108.250 C 352.128 126.950, 352.588 127.065, 347.526 106 C 346.005 99.675, 344.604 93.938, 344.412 93.250 C 344.159 92.343, 340.925 92, 332.638 92 C 323.143 92, 321.111 92.267, 320.607 93.582 M 47 114.813 C 47 124.341, 53.133 138.714, 60.838 147.243 C 65.323 152.207, 74.909 158.778, 81.096 161.129 C 90 164.512, 104.957 165.113, 172.500 164.800 L 237.500 164.500 237.500 137.500 L 237.500 110.500 142.250 110.245 L 47 109.990 47 114.813 M 464 137.554 L 464 165.107 537.250 164.757 C 607.803 164.421, 610.747 164.332, 617.205 162.351 C 625.403 159.836, 635.709 153.273, 641.125 147.121 C 649.293 137.841, 655 124.338, 655 114.290 L 655 110 559.500 110 L 464 110 464 137.554 M 94 173.790 C 94 179.593, 96.674 188.588, 100.648 196.149 C 105.085 204.594, 115.179 214.416, 123.538 218.424 C 136.586 224.680, 133.428 224.403, 195.750 224.769 C 259.316 225.143, 255.798 225.535, 250.552 218.658 C 243.555 209.483, 238 191.642, 238 178.340 L 238 170 166 170 L 94 170 94 173.790 M 463.983 177.750 C 463.952 191.240, 459.207 207.186, 452.006 218 C 450.357 220.475, 449.007 223.063, 449.004 223.750 C 448.999 225.353, 551.943 225.545, 562 223.961 C 577.956 221.447, 594.727 209.405, 601.572 195.548 C 605.529 187.535, 607.971 179.241, 607.988 173.750 L 608 170 536 170 L 464 170 463.983 177.750" stroke="none" fill="#db242f" fill-rule="evenodd"/></svg>